<svg width="60" height="60" viewBox="0 0 60 60" fill="none" xmlns="http://www.w3.org/2000/svg">
<path d="M51.67 7.96094H8.33004C3.72973 7.96094 0 11.6907 0 16.291V43.711C0 48.3113 3.72973 52.041 8.33004 52.041H51.67C56.2702 52.041 60 48.3113 60 43.711V16.291C60 11.6907 56.2702 7.96094 51.67 7.96094ZM20.8788 37.7025L9.21398 47.6541C8.39121 48.3563 7.1543 48.2587 6.45223 47.4351C5.75004 46.6123 5.84766 45.3754 6.67137 44.6733L18.3362 34.7218C19.1589 34.0196 20.3957 34.1172 21.0979 34.9409C21.8 35.7636 21.7024 37.0005 20.8788 37.7025ZM30 33.9193C28.4398 33.9154 26.9273 33.397 25.7449 32.3744L25.7459 32.3753L25.7421 32.3725C25.743 32.3734 25.7441 32.3734 25.7449 32.3744L7.84711 16.8401C7.02914 16.1302 6.94207 14.8934 7.65094 14.0765C8.36074 13.2585 9.59766 13.1714 10.4145 13.8803L28.3173 29.4184C28.6999 29.759 29.3304 30.0048 30 30.001C30.6687 30.003 31.2885 29.7638 31.6922 29.4118L31.7009 29.4041L49.5854 13.8804C50.4023 13.1716 51.6393 13.2586 52.3491 14.0766C53.0578 14.8934 52.9709 16.1303 52.1529 16.8402L34.2502 32.3792C33.0716 33.3911 31.5612 33.9173 30 33.9193ZM53.5486 47.4351C52.8464 48.2587 51.6095 48.3563 50.787 47.6541L39.1221 37.7025C38.2985 37.0004 38.2009 35.7636 38.9031 34.9409C39.6052 34.1172 40.8421 34.0197 41.6647 34.7218L53.3296 44.6733C54.1532 45.3754 54.2508 46.6123 53.5486 47.4351Z" fill="#4F45C1"/>
</svg>
