<svg width="60" height="61" viewBox="0 0 60 61" fill="none" xmlns="http://www.w3.org/2000/svg">
<g clip-path="url(#clip0_595_11667)">
<path d="M49.8314 12.2724C49.8314 12.2724 49.7816 12.002 49.6282 11.904C49.4746 11.806 49.3081 11.787 49.3081 11.787L44.4938 11.4288L40.9514 7.90697C40.817 7.80455 40.6619 7.74466 40.5041 7.71244C40.1269 7.63931 39.6196 7.72709 39.526 7.749L37.6882 8.31771C36.89 5.96107 35.7994 4.28271 34.431 3.31193C33.4192 2.59697 32.3045 2.29298 31.1072 2.38357C30.8557 2.04877 30.5787 1.75638 30.2753 1.51076C28.9471 0.437672 27.2337 0.271032 25.184 1.01377C19.037 3.24619 16.4275 11.2125 15.4867 15.1919L10.1294 16.8513C10.1294 16.8513 8.86762 17.211 8.5716 17.5647C8.24641 17.9536 8.18418 19.0063 8.18418 19.0063L3.63965 54.0555L37.8768 60.4415L56.3605 56.4416L49.8314 12.2724ZM30.8586 10.4333L24.9391 12.2652C25.7234 9.19357 27.2307 6.0547 30.1123 4.83103C30.7109 6.3983 30.8761 8.54295 30.8586 10.4333ZM25.8864 2.94947C27.1386 2.49478 28.1005 2.51517 28.8242 3.00349C24.9617 4.76517 23.2752 9.20377 22.5473 13.0063L17.8076 14.474C18.8661 10.6467 21.2279 4.64095 25.8864 2.94947ZM29.2036 28.7796C28.9325 28.648 28.6123 28.5076 28.2504 28.3746C27.8915 28.2402 27.4916 28.1129 27.0582 28.0077C26.629 27.9024 26.1671 27.8176 25.6803 27.7679C25.1978 27.7167 24.6912 27.7006 24.1664 27.7313C23.6848 27.7606 23.2484 27.8468 22.8646 27.9842C22.483 28.1188 22.1527 28.3059 21.8807 28.5384C21.6088 28.7694 21.3946 29.0457 21.2433 29.3645C21.0934 29.6817 21.005 30.0384 20.9882 30.4346C20.9751 30.7285 21.0211 31.0092 21.1241 31.2825C21.2271 31.5574 21.3888 31.8263 21.608 32.0925C21.8288 32.3614 22.108 32.6274 22.4479 32.8994C22.7893 33.1758 23.1921 33.4536 23.6569 33.7445C24.3089 34.1626 24.9756 34.6333 25.6094 35.1727C26.2526 35.7211 26.8608 36.3395 27.3835 37.0441C27.9128 37.7561 28.3527 38.5544 28.6496 39.449C28.9478 40.3526 29.1006 41.3482 29.0525 42.4446C28.9743 44.2385 28.581 45.7851 27.9311 47.0673C27.2893 48.3334 26.4033 49.3275 25.3361 50.0497C24.2923 50.7544 23.0832 51.1915 21.7682 51.3669C20.4912 51.5379 19.122 51.4619 17.7098 51.1504C17.6995 51.1489 17.6877 51.1446 17.6761 51.1417C17.6651 51.1402 17.6541 51.1373 17.6432 51.1359C17.6323 51.133 17.6213 51.1299 17.6096 51.1271C17.5986 51.1256 17.5875 51.1227 17.5759 51.1199C16.9137 50.9591 16.2747 50.7514 15.6746 50.5072C15.0832 50.269 14.5284 49.997 14.0226 49.7032C13.5241 49.4123 13.0723 49.1008 12.6812 48.7779C12.2945 48.4577 11.9656 48.1288 11.7075 47.7969L13.2652 42.6274C13.5284 42.8496 13.85 43.1026 14.2162 43.3583C14.586 43.62 15.002 43.8861 15.4471 44.1361C15.8973 44.3876 16.3784 44.6201 16.8733 44.81C17.3747 45.0016 17.8908 45.1507 18.4025 45.2252C18.8542 45.2911 19.2577 45.2778 19.6108 45.199C19.9668 45.1185 20.2701 44.9709 20.5188 44.7676C20.7687 44.5673 20.9624 44.3114 21.0977 44.0176C21.2329 43.7209 21.3096 43.389 21.3243 43.0337C21.3404 42.677 21.3081 42.3422 21.2182 42.0176C21.1291 41.6917 20.9829 41.3772 20.773 41.0615C20.5632 40.7471 20.2913 40.4314 19.9471 40.1054C19.6064 39.7823 19.1978 39.4489 18.7139 39.0952C18.1182 38.6508 17.5596 38.1698 17.059 37.6465C16.5648 37.1288 16.1263 36.5689 15.7674 35.9622C15.4122 35.3599 15.1322 34.7094 14.9509 34.0018C14.7704 33.2986 14.6871 32.5369 14.7221 31.7065C14.7835 30.3191 15.0606 29.0399 15.5248 27.8893C15.994 26.7255 16.6585 25.6817 17.4918 24.7826C18.342 23.8659 19.3756 23.0925 20.567 22.4975C21.7929 21.8849 23.1943 21.4551 24.7476 21.2519C25.4683 21.1568 26.1599 21.1129 26.8134 21.1101C27.4771 21.1072 28.1007 21.1467 28.6744 21.2198C29.2563 21.2944 29.7863 21.4025 30.2563 21.5355C30.73 21.6699 31.1409 21.8279 31.4793 22.0004L29.2036 28.7796ZM32.9105 9.79884C32.9076 9.56646 32.9017 9.33103 32.893 9.09127C32.8243 7.2492 32.5742 5.69798 32.1488 4.44068C32.6123 4.48744 33.0333 4.64095 33.4178 4.91295C34.4895 5.67173 35.2613 7.19939 35.8052 8.90259L32.9105 9.79884Z" fill="#4F45C1"/>
</g>
<defs>
<clipPath id="clip0_595_11667">
<rect width="60" height="60" fill="white" transform="translate(0 0.5)"/>
</clipPath>
</defs>
</svg>
