<svg width="120" height="56" viewBox="0 0 120 56" fill="none" xmlns="http://www.w3.org/2000/svg">
<g clip-path="url(#clip0_489_7956)">
<path d="M44.4596 27.5776C42.7694 27.5776 41.1856 26.8638 39.7467 25.7018L40.0971 24.0615L40.1123 24.0007C40.4243 22.2541 41.4141 19.3225 44.4596 19.3225C46.7435 19.3225 48.6013 21.1756 48.6013 23.4538C48.5936 25.7245 46.736 27.5776 44.4596 27.5776ZM44.4596 15.1381C40.5689 15.1381 37.5542 17.6595 36.3285 21.806C34.4555 19.0036 33.0393 15.6394 32.2095 12.8066H28.0221V23.6741C28.0221 25.8157 26.271 27.5622 24.1239 27.5622C21.9769 27.5622 20.226 25.8157 20.226 23.6741V12.8066H16.0381V23.6741C16.0229 28.1245 19.6546 31.7772 24.116 31.7772C28.5774 31.7772 32.2097 28.1245 32.2097 23.6741V21.8515C33.0243 23.545 34.0216 25.2536 35.2322 26.7726L32.6664 38.8019H36.9529L38.8105 30.0761C40.4397 31.1165 42.3128 31.7697 44.4598 31.7697C49.0506 31.7697 52.7889 28.0181 52.7889 23.4386C52.7889 18.8668 49.0506 15.1381 44.4598 15.1381" fill="#6FDA44"/>
<path d="M65.5714 15.6095L68.2741 26.4769L71.2511 15.6095H74.7989L70.2233 31.3145H66.6753L63.8661 20.3786L61.0642 31.3068H57.5164L52.9404 15.602H56.4884L59.4652 26.4694L62.168 15.602H65.5711L65.5714 15.6095ZM83.2879 15.1386C78.6819 15.1386 74.9513 18.8673 74.9513 23.4543C74.9513 28.049 78.6894 31.7702 83.2879 31.7702C87.8942 31.7702 91.6323 28.049 91.6323 23.4543C91.6323 18.8598 87.8942 15.1386 83.2879 15.1386ZM83.2879 28.3527C80.5776 28.3527 78.3849 26.1655 78.3849 23.462C78.3849 20.7585 80.5851 18.5713 83.2879 18.5713C85.9984 18.5713 88.1909 20.7583 88.1909 23.462C88.1909 26.158 85.9984 28.3527 83.2879 28.3527ZM101.766 19.1256C99.3829 19.1256 97.4567 21.0545 97.4567 23.4239V31.3068H93.8858V15.6095H97.4567V18.0244C97.4567 18.0244 98.9793 15.6018 102.108 15.6018H103.205V19.1256H101.766ZM113.75 22.8469C116.285 21.419 118.005 18.7078 118.005 15.6018H114.434C114.434 18.2218 112.303 20.3482 109.676 20.3482H109.197V8.03027H105.626V31.3066H109.197V23.91H109.623C109.973 23.91 110.43 24.1379 110.636 24.4187L115.706 31.3068H119.985L113.75 22.8469Z" fill="white"/>
</g>
<path d="M10 36L12.2451 42.9098H19.5106L13.6327 47.1803L15.8779 54.0902L10 49.8197L4.12215 54.0902L6.36729 47.1803L0.489435 42.9098H7.75486L10 36Z" fill="#FFC400"/>
<path d="M35 36L37.2451 42.9098H44.5106L38.6327 47.1803L40.8779 54.0902L35 49.8197L29.1221 54.0902L31.3673 47.1803L25.4894 42.9098H32.7549L35 36Z" fill="#FFC400"/>
<path d="M60 36L62.2451 42.9098H69.5106L63.6327 47.1803L65.8779 54.0902L60 49.8197L54.1221 54.0902L56.3673 47.1803L50.4894 42.9098H57.7549L60 36Z" fill="#FFC400"/>
<path d="M85 36L87.2451 42.9098H94.5106L88.6327 47.1803L90.8779 54.0902L85 49.8197L79.1221 54.0902L81.3673 47.1803L75.4894 42.9098H82.7549L85 36Z" fill="#FFC400"/>
<path d="M110 36L112.245 42.9098H119.511L113.633 47.1803L115.878 54.0902L110 49.8197L104.122 54.0902L106.367 47.1803L100.489 42.9098H107.755L110 36Z" fill="#FFC400"/>
<path d="M41.696 11H40.52C40.3147 11 40.212 10.902 40.212 10.706V3.692C40.212 3.58933 40.1607 3.538 40.058 3.538H38.462C38.266 3.538 38.168 3.44 38.168 3.244V2.292C38.168 2.096 38.266 1.998 38.462 1.998H43.754C43.95 1.998 44.048 2.096 44.048 2.292V3.244C44.048 3.44 43.95 3.538 43.754 3.538H42.158C42.046 3.538 41.99 3.58933 41.99 3.692V10.706C41.99 10.902 41.892 11 41.696 11ZM48.393 11H47.147C46.4097 11 45.8404 10.804 45.439 10.412C45.0377 10.02 44.837 9.45533 44.837 8.718V6.142C44.837 5.40467 45.0377 4.84 45.439 4.448C45.8404 4.056 46.4097 3.86 47.147 3.86H48.393C49.121 3.86 49.6857 4.06067 50.087 4.462C50.4977 4.854 50.703 5.414 50.703 6.142V8.718C50.703 9.446 50.4977 10.0107 50.087 10.412C49.6857 10.804 49.121 11 48.393 11ZM47.413 9.474H48.127C48.4257 9.474 48.6357 9.41333 48.757 9.292C48.8877 9.17067 48.953 8.96067 48.953 8.662V6.198C48.953 5.89933 48.8877 5.68933 48.757 5.568C48.6357 5.44667 48.4257 5.386 48.127 5.386H47.413C47.1144 5.386 46.9044 5.44667 46.783 5.568C46.6617 5.68933 46.601 5.89933 46.601 6.198V8.662C46.601 8.96067 46.6617 9.17067 46.783 9.292C46.9044 9.41333 47.1144 9.474 47.413 9.474ZM53.5841 12.904H52.3941C52.1981 12.904 52.1001 12.8107 52.1001 12.624V4.154C52.1001 3.958 52.1981 3.86 52.3941 3.86H53.5841C53.7801 3.86 53.8781 3.958 53.8781 4.154V4.616H53.9341C54.0367 4.364 54.2187 4.17733 54.4801 4.056C54.7414 3.92533 55.0167 3.86 55.3061 3.86H55.8801C56.5987 3.86 57.1401 4.056 57.5041 4.448C57.8774 4.84 58.0641 5.40467 58.0641 6.142V8.718C58.0641 9.45533 57.8774 10.02 57.5041 10.412C57.1401 10.804 56.5987 11 55.8801 11H55.3061C55.0167 11 54.7414 10.9393 54.4801 10.818C54.2187 10.6873 54.0367 10.496 53.9341 10.244H53.8781V12.624C53.8781 12.8107 53.7801 12.904 53.5841 12.904ZM54.8441 9.46H55.4601C55.7587 9.46 55.9687 9.39933 56.0901 9.278C56.2207 9.14733 56.2861 8.93267 56.2861 8.634V6.226C56.2861 5.92733 56.2207 5.71733 56.0901 5.596C55.9687 5.46533 55.7587 5.4 55.4601 5.4H54.8441C54.2001 5.4 53.8781 5.75467 53.8781 6.464V8.396C53.8781 9.10533 54.2001 9.46 54.8441 9.46ZM64.1694 11H62.9794C62.7834 11 62.6854 10.902 62.6854 10.706V2.292C62.6854 2.096 62.7834 1.998 62.9794 1.998H66.3114C67.0394 1.998 67.6087 2.19867 68.0194 2.6C68.4301 3.00133 68.6354 3.566 68.6354 4.294V5.386C68.6354 6.44067 68.2201 7.14067 67.3894 7.486V7.542L68.8874 10.664C68.9714 10.888 68.8921 11 68.6494 11H67.5154C67.3474 11 67.2261 10.9813 67.1514 10.944C67.0767 10.9067 67.0161 10.8273 66.9694 10.706L65.5694 7.682H64.6314C64.5194 7.682 64.4634 7.73333 64.4634 7.836V10.706C64.4634 10.902 64.3654 11 64.1694 11ZM64.6174 6.254H65.9894C66.2881 6.254 66.5074 6.19333 66.6474 6.072C66.7874 5.94133 66.8574 5.736 66.8574 5.456V4.364C66.8574 4.07467 66.7874 3.86467 66.6474 3.734C66.5074 3.60333 66.2881 3.538 65.9894 3.538H64.6174C64.5147 3.538 64.4634 3.58933 64.4634 3.692V6.1C64.4634 6.20267 64.5147 6.254 64.6174 6.254ZM72.7076 11H72.3716C71.6343 11 71.065 10.804 70.6636 10.412C70.2623 10.02 70.0616 9.45533 70.0616 8.718V6.142C70.0616 5.40467 70.2623 4.84 70.6636 4.448C71.065 4.056 71.6343 3.86 72.3716 3.86H75.6056C75.811 3.86 75.9136 3.958 75.9136 4.154V10.706C75.9136 10.902 75.811 11 75.6056 11H74.4296C74.2336 11 74.1356 10.902 74.1356 10.706V10.244H74.0796C73.977 10.496 73.795 10.6873 73.5336 10.818C73.2723 10.9393 72.997 11 72.7076 11ZM74.1356 8.396V5.554C74.1356 5.45133 74.0796 5.4 73.9676 5.4H72.6516C72.353 5.4 72.143 5.46533 72.0216 5.596C71.9003 5.71733 71.8396 5.92733 71.8396 6.226V8.634C71.8396 8.93267 71.9003 9.14733 72.0216 9.278C72.143 9.39933 72.353 9.46 72.6516 9.46H73.1696C73.8136 9.46 74.1356 9.10533 74.1356 8.396ZM78.9317 11H77.7417C77.5457 11 77.4477 10.902 77.4477 10.706V4.154C77.4477 3.958 77.5457 3.86 77.7417 3.86H78.9317C79.1277 3.86 79.2257 3.958 79.2257 4.154V4.616H79.2817C79.4871 4.112 79.9444 3.86 80.6537 3.86H81.1017C82.5671 3.86 83.2997 4.62067 83.2997 6.142V10.706C83.2997 10.902 83.1971 11 82.9917 11H81.8157C81.6197 11 81.5217 10.902 81.5217 10.706V6.226C81.5217 5.92733 81.4564 5.71733 81.3257 5.596C81.2044 5.46533 80.9944 5.4 80.6957 5.4H80.1917C79.5477 5.4 79.2257 5.75467 79.2257 6.464V10.706C79.2257 10.902 79.1277 11 78.9317 11ZM88.8639 3.86H90.2219C90.3339 3.86 90.4085 3.89267 90.4459 3.958C90.4832 4.02333 90.4692 4.10733 90.4039 4.21L88.5419 7.276V7.332L90.4879 10.65C90.5439 10.7433 90.5485 10.8273 90.5019 10.902C90.4552 10.9673 90.3712 11 90.2499 11H89.0459C88.8872 11 88.7705 10.9813 88.6959 10.944C88.6305 10.9067 88.5605 10.8273 88.4859 10.706L86.7079 7.584C86.6239 7.43467 86.6239 7.28067 86.7079 7.122L88.3879 4.14C88.4905 3.95333 88.6492 3.86 88.8639 3.86ZM86.2599 11H85.0699C84.8739 11 84.7759 10.902 84.7759 10.706V1.452C84.7759 1.256 84.8739 1.158 85.0699 1.158H86.2599C86.4559 1.158 86.5539 1.256 86.5539 1.452V10.706C86.5539 10.902 86.4559 11 86.2599 11Z" fill="white"/>
<defs>
<clipPath id="clip0_489_7956">
<rect width="104" height="31" fill="white" transform="translate(16 8)"/>
</clipPath>
</defs>
</svg>
