<svg width="60" height="60" viewBox="0 0 60 60" fill="none" xmlns="http://www.w3.org/2000/svg">
<g clip-path="url(#clip0_595_11705)">
<path fill-rule="evenodd" clip-rule="evenodd" d="M56.325 15.6064C56.454 16.5634 56.526 17.5859 56.526 18.6899C56.526 23.9639 56.037 24.2611 45.081 55.9321C54 50.7301 60 41.067 60 30C60 24.783 58.668 19.8784 56.325 15.6064ZM30.528 32.625L21.525 58.7783C27.6 60.5663 34.038 60.3842 39.963 58.3022C39.882 58.1732 39.81 58.0347 39.75 57.8877L30.528 32.625ZM50.253 28.4854C50.253 24.7774 48.921 22.2084 47.778 20.2104C46.26 17.7384 44.832 15.6483 44.832 13.1763C44.832 10.4193 46.926 7.85156 49.872 7.85156C50.004 7.85156 50.13 7.869 50.259 7.875C44.922 2.985 37.812 0 30 0C19.521 0 10.299 5.37551 4.93501 13.5205C6.84601 13.5805 9.41098 13.6052 14.862 13.1792C16.479 13.0832 16.668 15.4585 15.054 15.6475C15.054 15.6475 13.428 15.84 11.619 15.936L22.545 48.4321L29.109 28.7402L24.435 15.9331C22.821 15.8401 21.291 15.6475 21.291 15.6475C19.674 15.5515 19.863 13.0803 21.48 13.1763C27.681 13.6533 30.855 13.6893 37.377 13.1763C38.994 13.0803 39.186 15.4555 37.569 15.6475C37.569 15.6475 35.94 15.8401 34.134 15.9331L44.976 48.1831C49.257 33.8791 50.253 31.4854 50.253 28.4854ZM0 30C0 41.874 6.9 52.137 16.908 57L2.59799 17.7905C0.932992 21.5225 0 25.65 0 30Z" fill="#4F45C1"/>
</g>
<defs>
<clipPath id="clip0_595_11705">
<rect width="60" height="60" fill="white"/>
</clipPath>
</defs>
</svg>
